<?xml version="1.0" encoding="UTF-8"?>
<svg width="572px" height="227px" viewBox="0 0 572 227" version="1.1" xmlns="http://www.w3.org/2000/svg" xmlns:xlink="http://www.w3.org/1999/xlink">
    <!-- Generator: Sketch 52.6 (67491) - http://www.bohemiancoding.com/sketch -->
    <title>spondoo_white</title>
    <desc>Created with Sketch.</desc>
    <g id="Page-1" stroke="none" stroke-width="1" fill="none" fill-rule="evenodd">
        <g id="Group" fill="#FFFFFF">
            <g>
                <path d="M42.6,184 C27.6,184 16.6,179.4 9.8,170.1 C3.6,161.7 0.5,150.6 0.5,136.6 C0.5,135.2 0.5,133.6 0.6,132 L22.8,126.1 C22.7,127.8 22.7,129.5 22.7,131.1 C22.8,134.6 23,137.7 23.2,140.5 C23.6,144.7 24.6,148.7 26.1,152.6 C27.6,156.5 29.9,159.5 33,161.6 C36.1,163.7 40,164.8 44.7,164.8 C51.3,164.8 56.6,163 60.4,159.3 C64.2,155.7 66.5,150.3 67.2,143.2 C67.3,141.8 67.4,140.4 67.4,139.1 C67.4,137.5 67.3,135.9 67.1,134.3 C66.7,131.5 66.1,129 65.3,127 C64.5,124.9 63.3,122.7 61.6,120.3 C59.9,117.9 58.4,115.9 57,114.4 C55.6,112.8 53.7,110.8 51.1,108.2 L23.7,81.1 C18.3,75.6 14.5,69.8 12.3,63.8 C10.8,59.5 10,54.7 10,49.2 C10,46.8 10.1,44.3 10.4,41.7 C11.8,28.8 16.6,18.7 24.9,11.5 C33.2,4.3 43.8,0.6 56.8,0.5 C57.1,0.5 57.3,0.5 57.6,0.5 C71.5,0.6 81.5,4.3 87.8,11.7 C93.9,18.9 96.9,30 96.9,45 C96.9,45.7 96.9,46.3 96.9,47.1 L75.8,52.7 C75.9,51 75.9,49.4 75.9,47.8 C75.9,44.7 75.8,41.9 75.5,39.5 C75.1,35.7 74.2,32.2 72.8,28.9 C71.4,25.6 69.3,23.1 66.3,21.5 C63.8,20.1 60.7,19.4 57.1,19.4 C56.5,19.4 55.8,19.4 55,19.5 C41.2,20.3 33.7,27 32.4,39.5 C32.3,40.9 32.2,42.2 32.2,43.4 C32.2,46.9 32.7,50 33.8,52.7 C35.2,56.3 37.9,60.1 41.7,64.1 L69.3,91.1 C76.5,98.3 82,105.9 85.8,114 C88.8,120.4 90.2,127.4 90.2,135.1 C90.2,137.1 90.1,139.2 89.9,141.4 C88.5,154.5 83.5,164.9 74.8,172.5 C66.1,180.2 55.4,184 42.6,184 Z" id="Path"></path>
                <path d="M88,224.3 L105.9,53.8 L128.9,53.8 L127.9,64.1 C135.7,56 144.2,52 153.5,52 C157.2,52 160.5,52.6 163.3,53.9 C166.2,55.2 168.5,56.8 170.2,58.7 C172,60.7 173.5,63.1 174.6,66 C175.8,68.9 176.6,71.7 177.1,74.6 C177.6,77.4 177.9,80.5 178.1,83.9 C178.2,85.9 178.2,87.7 178.2,89.3 C178.1,90.5 178.1,91.7 178.1,92.8 C178,95.3 177.8,98 177.6,100.7 L174.3,131.3 C170.6,166.5 158.2,184.1 137,184.1 C129.3,184.1 122.4,180.3 116.3,172.6 L110.9,224.5 L88,224.5 L88,224.3 Z M134.4,165.8 C136.9,165.8 139,165.2 140.8,164 C142.6,162.8 144.1,161.3 145.1,159.4 C146.2,157.6 147.2,155 148,151.8 C148.9,148.5 149.5,145.4 149.9,142.5 C150.3,139.6 150.7,135.9 151.3,131.2 L154.6,100.5 C155.1,94.7 155.4,89.6 155.4,85 C155.4,80.4 154.4,76.8 152.5,74.1 C150.6,71.4 147.6,70 143.7,70 C138.4,70 132.7,72.3 126.5,76.9 L117.7,159.7 C122.6,163.8 128.2,165.8 134.4,165.8 Z" id="Shape" fill-rule="nonzero"></path>
                <path d="M262.1,182.1 L275.5,53.8 L298.4,53.8 L297.1,66.5 C308.5,56.8 319.5,52 330,52 C333.6,52 336.6,52.8 339.1,54.3 C341.6,55.9 343.3,57.9 344.3,60.3 C345.3,62.8 346,65.6 346.5,68.7 C346.6,70.1 346.8,71.5 346.8,72.9 C346.8,74.7 346.7,76.5 346.4,78.3 L335.6,182 L312.6,182 L322.8,84.9 C322.9,83.4 323,82 323,80.7 C323.1,77.7 322.7,75.3 321.8,73.6 C320.6,71.2 318,70 314,70 C309,70 303,72.8 295.9,78.3 L285,182 L262.1,182 L262.1,182.1 Z" id="Path"></path>
                <path d="M377.1,183.9 C377,183.9 376.9,183.9 376.8,183.9 C365.9,183.9 358.3,179.9 354.2,171.9 C351.3,166.3 349.8,158.3 349.8,147.7 C349.8,142.9 350.1,137.5 350.8,131.6 L353.4,106.8 C354.1,100.4 354.9,94.6 355.9,89.6 C356.9,84.5 358.4,79.6 360.2,74.8 C362.1,70 364.3,65.9 366.9,62.7 C369.5,59.5 372.8,56.9 376.8,55 C380.8,53 385.3,52.1 390.3,52.1 C398,52.2 404.8,55.5 410.8,62.2 L417,2.6 L440,2.6 L421,182.1 L398,182.1 L398.9,173.9 C391.9,180.6 384.7,183.9 377.1,183.9 Z M384.8,165.8 C389.5,165.8 394.7,164.1 400.3,160.6 L409.2,76.1 C404.2,72.1 399.3,70 394.5,70 C391.7,70 389.2,70.7 387.1,72.1 C385,73.5 383.3,75.5 382,78.2 C380.7,80.8 379.7,83.7 378.9,86.9 C378.1,90 377.5,93.7 377.1,97.9 L373.3,133.5 C372.8,139.1 372.5,144.2 372.5,148.6 C372.5,149.1 372.5,149.6 372.5,150.2 C372.6,155 373.6,158.8 375.6,161.6 C377.6,164.4 380.7,165.8 384.8,165.8 Z" id="Shape" fill-rule="nonzero"></path>
                <path d="M485.7,179.6 C480.6,181.8 474.6,182.9 467.7,182.9 C460.8,182.9 455,181.8 450.3,179.6 C445.6,177.4 442.2,174.2 439.9,170.1 C437.6,166 436.1,161 435.4,155.1 C435.1,152.6 435,149.9 435,147.1 C435,143.4 435.3,139.5 435.8,135.4 L439.6,98.5 C441.3,83 445.3,71.2 451.8,63.1 C458.3,55 468.2,51 481.6,51 C488.5,51 494.3,52.1 499,54.4 C503.7,56.6 507.2,59.8 509.5,63.9 C511.8,68 513.3,73 514.1,78.9 C514.5,81.5 514.6,84.2 514.5,87.1 C514.5,90.7 514.2,94.5 513.7,98.6 L509.8,135.5 C509,143.1 507.7,149.7 505.8,155.3 C504,160.9 501.4,165.8 498.2,170.1 C494.9,174.2 490.8,177.4 485.7,179.6 Z M464.4,165 C465.8,165.6 467.5,165.9 469.4,165.9 C471.3,165.9 473.1,165.6 474.7,165 C476.3,164.4 477.6,163.7 478.7,162.9 C479.8,162.1 480.7,160.9 481.6,159.2 C482.4,157.5 483.1,156.1 483.6,154.8 C484.1,153.5 484.6,151.7 485,149.2 C485.4,146.7 485.7,144.8 485.9,143.3 C486.1,141.9 486.3,139.7 486.6,136.9 L490.8,97 C491.1,94.3 491.3,92.1 491.4,90.6 C491.5,89.1 491.6,87.1 491.7,84.7 C491.8,82.3 491.7,80.4 491.5,79.1 C491.3,77.8 490.9,76.3 490.4,74.7 C489.9,73 489.2,71.8 488.3,71 C487.4,70.2 486.2,69.4 484.8,68.8 C483.4,68.2 481.7,67.9 479.8,67.9 C477.6,67.9 475.6,68.2 473.8,68.9 C472.1,69.6 470.6,70.7 469.5,72.2 C468.3,73.7 467.4,75.2 466.6,76.7 C465.8,78.2 465.2,80.2 464.6,82.8 C464.1,85.4 463.7,87.6 463.4,89.5 C463.1,91.3 462.9,93.9 462.6,97 L458.4,136.9 C458.1,139.7 457.9,141.9 457.8,143.3 C457.7,144.8 457.6,146.7 457.5,149.1 C457.4,151.5 457.5,153.3 457.7,154.6 C457.9,155.9 458.3,157.4 458.8,159 C459.3,160.7 460,161.9 460.9,162.7 C461.9,163.7 463,164.4 464.4,165 Z" id="Shape" fill-rule="nonzero"></path>
                <path d="M543.7,179.6 C538.6,181.8 532.6,182.9 525.7,182.9 C518.8,182.9 513,181.8 508.3,179.6 C503.6,177.4 500.2,174.2 497.9,170.1 C495.6,166 494.1,161 493.4,155.1 C493.1,152.6 493,149.9 493,147.1 C493,143.4 493.3,139.5 493.8,135.4 L497.6,98.5 C499.3,83 503.3,71.2 509.8,63.1 C516.3,55 526.2,51 539.6,51 C546.5,51 552.3,52.1 557,54.4 C561.7,56.6 565.2,59.8 567.5,63.9 C569.8,68 571.3,73 572.1,78.9 C572.5,81.5 572.6,84.2 572.5,87.1 C572.5,90.7 572.2,94.5 571.7,98.6 L567.8,135.5 C567,143.1 565.7,149.7 563.8,155.3 C562,160.9 559.4,165.8 556.2,170.1 C552.9,174.2 548.8,177.4 543.7,179.6 Z M522.4,165 C523.8,165.6 525.5,165.9 527.4,165.9 C529.3,165.9 531.1,165.6 532.7,165 C534.3,164.4 535.6,163.7 536.7,162.9 C537.8,162.1 538.7,160.9 539.6,159.2 C540.4,157.5 541.1,156.1 541.6,154.8 C542.1,153.5 542.6,151.7 543,149.2 C543.4,146.7 543.7,144.8 543.9,143.3 C544.1,141.9 544.3,139.7 544.6,136.9 L548.8,97 C549.1,94.3 549.3,92.1 549.4,90.6 C549.5,89.1 549.6,87.1 549.7,84.7 C549.8,82.3 549.7,80.4 549.5,79.1 C549.3,77.8 548.9,76.3 548.4,74.7 C547.9,73 547.2,71.8 546.3,71 C545.4,70.2 544.2,69.4 542.8,68.8 C541.4,68.2 539.7,67.9 537.8,67.9 C535.6,67.9 533.6,68.2 531.8,68.9 C530.1,69.6 528.6,70.7 527.5,72.2 C526.3,73.7 525.4,75.2 524.6,76.7 C523.8,78.2 523.2,80.2 522.6,82.8 C522.1,85.4 521.7,87.6 521.4,89.5 C521.1,91.3 520.9,93.9 520.6,97 L516.4,136.9 C516.1,139.7 515.9,141.9 515.8,143.3 C515.7,144.8 515.6,146.7 515.5,149.1 C515.4,151.5 515.5,153.3 515.7,154.6 C515.9,155.9 516.3,157.4 516.8,159 C517.3,160.7 518,161.9 518.9,162.7 C519.9,163.7 521,164.4 522.4,165 Z" id="Shape" fill-rule="nonzero"></path>
                <path d="M232.1,180.7 C227,182.9 221,184 214.1,184 C207.2,184 201.4,182.9 196.7,180.7 C192,178.5 188.6,175.3 186.3,171.2 C184,167.1 182.5,162.1 181.8,156.2 C181.5,153.7 181.4,151 181.4,148.2 C181.4,144.5 181.7,140.6 182.2,136.5 L186,99.6 C187.7,84.1 191.7,72.3 198.2,64.2 C204.7,56.1 214.6,52.1 228,52.1 C234.9,52.1 240.7,53.2 245.4,55.5 C250.1,57.7 253.6,60.9 255.9,65 C258.2,69.1 259.7,74.1 260.5,80 C260.9,82.6 261,85.3 260.9,88.2 C260.9,91.8 260.6,95.6 260.1,99.7 L256.2,136.6 C255.4,144.2 254.1,150.8 252.2,156.4 C250.4,162 247.8,166.9 244.6,171.2 C241.3,175.3 237.2,178.5 232.1,180.7 Z M210.8,166.1 C212.2,166.7 213.9,167 215.8,167 C217.7,167 219.5,166.7 221.1,166.1 C222.7,165.5 224,164.8 225.1,164 C226.2,163.2 227.1,162 228,160.3 C228.8,158.6 229.5,157.2 230,155.9 C230.5,154.6 231,152.8 231.4,150.3 C231.8,147.8 232.1,145.9 232.3,144.4 C232.5,143 232.7,140.8 233,138 L237.2,98.1 C237.5,95.4 237.7,93.2 237.8,91.7 C237.9,90.2 238,88.2 238.1,85.8 C238.2,83.4 238.1,81.5 237.9,80.2 C237.7,78.9 237.3,77.4 236.8,75.8 C236.3,74.1 235.6,72.9 234.7,72.1 C233.8,71.3 232.6,70.5 231.2,69.9 C229.8,69.3 228.1,69 226.2,69 C224,69 222,69.3 220.2,70 C218.5,70.7 217,71.8 215.9,73.3 C214.7,74.8 213.8,76.3 213,77.8 C212.2,79.3 211.6,81.3 211,83.9 C210.5,86.5 210.1,88.7 209.8,90.6 C209.5,92.4 209.3,95 209,98.1 L204.8,138 C204.5,140.8 204.3,143 204.2,144.4 C204.1,145.9 204,147.8 203.9,150.2 C203.8,152.6 203.9,154.4 204.1,155.7 C204.3,157 204.7,158.5 205.2,160.1 C205.7,161.8 206.4,163 207.3,163.8 C208.3,164.8 209.4,165.5 210.8,166.1 Z" id="Shape" fill-rule="nonzero"></path>
            </g>
            <g transform="translate(127.000000, 197.000000)">
                <path d="M8,7.2 C12.1,7.2 15.4,10.8 15.4,15 C15.4,19.2 12.1,22.8 8,22.8 C3.9,22.8 0.6,19.2 0.6,15 C0.6,10.7 3.9,7.2 8,7.2 Z M8,21.2 C11.2,21.2 13.8,18.4 13.8,14.9 C13.8,11.4 11.1,8.6 8,8.6 C4.9,8.6 2.2,11.4 2.2,14.9 C2.1,18.4 4.8,21.2 8,21.2 Z" id="Shape" fill-rule="nonzero"></path>
                <path d="M38.6,13.5 C38.6,10.9 36.5,8.7 33.8,8.7 C31.2,8.7 29,10.9 29,13.5 L29,21.9 L29,22 C29,22.1 28.9,22.3 28.8,22.3 C28.7,22.5 28.5,22.6 28.2,22.6 L28,22.6 C27.8,22.5 27.6,22.4 27.5,22.2 C27.5,22.2 27.5,22.1 27.5,22.1 C27.5,22.1 27.5,22 27.5,22 L27.5,13.6 L27.5,13.3 L27.5,8 C27.5,7.6 27.8,7.2 28.3,7.2 C28.7,7.2 29,7.5 29,8 L29,9.5 C30.1,8.1 31.9,7.2 33.8,7.2 C37.3,7.2 40.1,10.1 40.1,13.5 L40.1,21.9 C40.1,22.3 39.8,22.7 39.3,22.7 C38.8,22.7 38.5,22.4 38.5,21.9 L38.5,13.5 L38.6,13.5 Z" id="Path"></path>
                <path d="M53.5,1.3 C53.5,0.9 53.8,0.5 54.3,0.5 C54.7,0.5 55.1,0.8 55.1,1.3 L55.1,22 C55.1,22.4 54.8,22.8 54.3,22.8 C53.9,22.8 53.5,22.5 53.5,22 L53.5,1.3 Z" id="Path"></path>
                <path d="M67.6,2.9 C67.6,2.5 67.9,2.1 68.4,2.1 C68.8,2.1 69.2,2.4 69.2,2.9 L69.2,3.6 C69.2,4 68.9,4.4 68.4,4.4 C68,4.4 67.6,4 67.6,3.6 L67.6,2.9 Z M67.6,7.9 C67.6,7.5 67.9,7.1 68.4,7.1 C68.8,7.1 69.2,7.4 69.2,7.9 L69.2,21.9 C69.2,22.3 68.9,22.7 68.4,22.7 C68,22.7 67.6,22.4 67.6,21.9 L67.6,7.9 Z" id="Shape" fill-rule="nonzero"></path>
                <path d="M93.9,13.5 C93.9,10.9 91.8,8.7 89.1,8.7 C86.5,8.7 84.3,10.9 84.3,13.5 L84.3,21.9 L84.3,22 C84.3,22.1 84.2,22.3 84.1,22.3 C84,22.5 83.8,22.6 83.5,22.6 L83.3,22.6 C83.1,22.5 82.9,22.4 82.8,22.2 C82.8,22.2 82.8,22.1 82.8,22.1 C82.8,22.1 82.8,22 82.8,22 L82.8,13.6 L82.8,13.3 L82.8,8 C82.8,7.6 83.1,7.2 83.6,7.2 C84,7.2 84.3,7.5 84.3,8 L84.3,9.5 C85.4,8.1 87.2,7.2 89.1,7.2 C92.6,7.2 95.4,10.1 95.4,13.5 L95.4,21.9 C95.4,22.3 95.1,22.7 94.6,22.7 C94.1,22.7 93.8,22.4 93.8,21.9 L93.8,13.5 L93.9,13.5 Z" id="Path"></path>
                <path d="M107.5,15 C107.5,10.7 110.9,7.2 115.1,7.2 C119.1,7.2 122.3,10.4 122.6,14.4 L122.6,14.5 C122.6,14.9 122.3,15.2 121.8,15.2 L109,15.2 C109.2,18.6 111.8,21.2 115,21.2 C117.1,21.2 119,20.1 120,18.4 C120.2,18 120.7,18 121,18.1 C121.3,18.4 121.5,18.8 121.3,19.2 C120,21.3 117.7,22.7 115,22.7 C110.9,22.7 107.5,19.2 107.5,15 Z M109.1,13.8 L120.9,13.8 C120.4,10.9 117.9,8.8 115.1,8.8 C112.2,8.7 109.7,10.8 109.1,13.8 Z" id="Shape" fill-rule="nonzero"></path>
                <path d="M149.1,19.5 C149.4,19.2 149.8,19.1 150.2,19.4 C151.3,20.2 153,21.2 155,21.2 C156.2,21.2 157.3,20.8 158,20.2 C158.8,19.7 159.2,19 159.2,18.3 C159.2,17.6 158.9,17.1 158.1,16.4 C157.4,15.9 156.3,15.5 154.8,15.3 L154.7,15.3 C153.3,15 152.1,14.7 151.2,14.1 C150.2,13.5 149.5,12.5 149.5,11.3 C149.5,10.1 150.2,9 151.2,8.3 C152.1,7.7 153.4,7.3 155,7.3 C157,7.3 158.4,8.2 159.6,9 C159.9,9.3 160,9.7 159.8,10.1 C159.6,10.4 159.1,10.5 158.8,10.3 C157.7,9.5 156.5,8.7 155,8.7 C153.7,8.7 152.7,9 152,9.6 C151.4,10.1 151,10.7 151,11.4 C151,12.1 151.3,12.5 151.9,13 C152.6,13.5 153.6,13.9 155.1,14.1 L155.2,14.1 C156.7,14.3 157.9,14.8 159,15.4 C160,16.1 160.7,17.3 160.7,18.6 C160.7,19.9 160,20.9 158.9,21.7 C157.8,22.5 156.6,22.9 155,22.9 C152.5,22.9 150.5,21.7 149.3,20.7 C148.9,20.2 148.9,19.8 149.1,19.5 Z" id="Path"></path>
                <path d="M172.2,15.2 L172.2,14.9 L172.2,14.6 L172.2,8 C172.2,7.6 172.5,7.2 173,7.2 C173.4,7.2 173.8,7.5 173.8,8 L173.8,10.3 C175.1,8.5 177.3,7.3 179.7,7.3 C183.9,7.3 187.2,10.8 187.2,15 C187.2,19.2 183.9,22.7 179.7,22.7 C177.3,22.7 175.1,21.5 173.8,19.7 L173.8,28.6 C173.8,29 173.5,29.4 173,29.4 C172.6,29.4 172.2,29.1 172.2,28.6 L172.2,15.2 Z M173.7,14.9 C173.7,18.3 176.4,21.1 179.6,21.1 C182.9,21.1 185.6,18.3 185.6,14.9 C185.6,11.5 182.9,8.7 179.6,8.7 C176.5,8.7 173.8,11.3 173.7,14.6 L173.7,14.9 Z" id="Shape" fill-rule="nonzero"></path>
                <path d="M206.1,7.2 C210.2,7.2 213.5,10.8 213.5,15 C213.5,19.2 210.2,22.8 206.1,22.8 C202,22.8 198.7,19.2 198.7,15 C198.7,10.7 202,7.2 206.1,7.2 Z M206.1,21.2 C209.3,21.2 211.9,18.4 211.9,14.9 C211.9,11.4 209.2,8.6 206.1,8.6 C203,8.6 200.3,11.4 200.3,14.9 C200.2,18.4 202.9,21.2 206.1,21.2 Z" id="Shape" fill-rule="nonzero"></path>
                <path d="M225,8 C225,7.6 225.3,7.2 225.8,7.2 C226.2,7.2 226.5,7.5 226.5,8 L226.5,11.4 C226.6,11.3 226.6,11.1 226.7,11 C227.9,9.2 229.9,7.2 232.9,7.2 C233.3,7.2 233.7,7.5 233.7,8 C233.7,8.4 233.4,8.8 232.9,8.8 C230.9,8.8 229.5,9.9 228.4,11.3 C227.4,12.7 226.7,14.3 226.5,14.9 C226.4,15 226.4,15.1 226.4,15.2 L226.4,22 C226.4,22.4 226.1,22.8 225.7,22.8 C225.3,22.8 224.9,22.5 224.9,22 L224.9,8 L225,8 Z" id="Path"></path>
                <path d="M250.7,7.9 C250.7,8.3 250.3,8.7 249.9,8.7 L247.9,8.7 L247.9,20 C247.9,20.8 248.7,21.1 249,21.1 C249.3,21.1 249.8,21.5 249.8,21.9 C249.8,22.3 249.4,22.7 249,22.7 C247.4,22.7 246.3,21.6 246.3,20 L246.3,8.7 L244.4,8.7 C243.6,8.7 243.6,8.3 243.6,7.9 C243.6,7.5 243.6,7.1 244.4,7.1 L246.3,7.1 L246.3,1.3 C246.3,0.9 246.7,0.5 247.1,0.5 C247.5,0.5 247.9,0.9 247.9,1.3 L247.9,7.1 L249.9,7.1 C250.3,7.2 250.7,7.6 250.7,7.9 Z" id="Path"></path>
                <path d="M263.3,19.5 C263.6,19.2 264,19.1 264.4,19.4 C265.5,20.2 267.2,21.2 269.2,21.2 C270.4,21.2 271.5,20.8 272.2,20.2 C273,19.7 273.4,19 273.4,18.3 C273.4,17.6 273.1,17.1 272.3,16.4 C271.6,15.9 270.5,15.5 269,15.3 L268.9,15.3 C267.5,15 266.3,14.7 265.4,14.1 C264.4,13.5 263.7,12.5 263.7,11.3 C263.7,10.1 264.4,9 265.4,8.3 C266.3,7.7 267.6,7.3 269.2,7.3 C271.2,7.3 272.6,8.2 273.8,9 C274.1,9.3 274.2,9.7 274,10.1 C273.8,10.4 273.3,10.5 273,10.3 C271.9,9.5 270.7,8.7 269.2,8.7 C267.9,8.7 266.9,9 266.2,9.6 C265.6,10.1 265.2,10.7 265.2,11.4 C265.2,12.1 265.5,12.5 266.1,13 C266.8,13.5 267.8,13.9 269.3,14.1 L269.4,14.1 C270.9,14.3 272.1,14.8 273.2,15.4 C274.2,16.1 274.9,17.3 274.9,18.6 C274.9,19.9 274.2,20.9 273.1,21.7 C272,22.5 270.8,22.9 269.2,22.9 C266.7,22.9 264.7,21.7 263.5,20.7 C263,20.2 263,19.8 263.3,19.5 Z" id="Path"></path>
                <path d="M302.2,15.3 L302.2,15 L302.2,14.7 L302.2,1.3 C302.2,0.9 302.5,0.5 303,0.5 C303.4,0.5 303.8,0.8 303.8,1.3 L303.8,10.3 C305.2,8.5 307.3,7.3 309.8,7.3 C314,7.3 317.3,10.8 317.3,15.1 C317.3,19.4 314,22.8 309.8,22.8 C307.4,22.8 305.2,21.6 303.8,19.8 L303.8,22.1 C303.8,22.5 303.5,22.9 303,22.9 C302.6,22.9 302.2,22.6 302.2,22.1 L302.2,15.3 Z M303.7,15 C303.7,18.4 306.4,21.2 309.7,21.2 C313,21.2 315.7,18.4 315.7,15 C315.7,11.5 313,8.7 309.7,8.7 C306.5,8.7 303.9,11.4 303.7,14.7 L303.7,15 Z" id="Shape" fill-rule="nonzero"></path>
                <path d="M328.4,15 C328.4,10.7 331.8,7.2 336,7.2 C340,7.2 343.2,10.4 343.5,14.4 L343.5,14.5 C343.5,14.9 343.2,15.2 342.7,15.2 L329.9,15.2 C330.1,18.6 332.7,21.2 335.9,21.2 C338,21.2 339.9,20.1 340.9,18.4 C341.1,18 341.6,18 341.9,18.1 C342.2,18.4 342.4,18.8 342.2,19.2 C340.9,21.3 338.6,22.7 335.9,22.7 C331.7,22.7 328.4,19.2 328.4,15 Z M330,13.8 L341.8,13.8 C341.3,10.9 338.8,8.8 336,8.8 C333,8.7 330.5,10.8 330,13.8 Z" id="Shape" fill-rule="nonzero"></path>
                <path d="M359.3,7.9 C359.3,8.3 358.9,8.7 358.5,8.7 L356.5,8.7 L356.5,20 C356.5,20.8 357.3,21.1 357.6,21.1 C357.9,21.1 358.4,21.5 358.4,21.9 C358.4,22.3 358,22.7 357.6,22.7 C356,22.7 354.9,21.6 354.9,20 L354.9,8.7 L353,8.7 C352.2,8.7 352.2,8.3 352.2,7.9 C352.2,7.5 352.2,7.1 353,7.1 L354.9,7.1 L354.9,1.3 C354.9,0.9 355.3,0.5 355.7,0.5 C356.1,0.5 356.5,0.9 356.5,1.3 L356.5,7.1 L358.5,7.1 C358.9,7.2 359.3,7.6 359.3,7.9 Z" id="Path"></path>
                <path d="M376.3,7.9 C376.3,8.3 375.9,8.7 375.5,8.7 L373.5,8.7 L373.5,20 C373.5,20.8 374.3,21.1 374.6,21.1 C374.9,21.1 375.4,21.5 375.4,21.9 C375.4,22.3 375,22.7 374.6,22.7 C373,22.7 371.9,21.6 371.9,20 L371.9,8.7 L370,8.7 C369.2,8.7 369.2,8.3 369.2,7.9 C369.2,7.5 369.2,7.1 370,7.1 L371.9,7.1 L371.9,1.3 C371.9,0.9 372.3,0.5 372.7,0.5 C373.1,0.5 373.5,0.9 373.5,1.3 L373.5,7.1 L375.5,7.1 C376,7.2 376.3,7.6 376.3,7.9 Z" id="Path"></path>
                <path d="M390,2.9 C390,2.5 390.3,2.1 390.8,2.1 C391.2,2.1 391.6,2.4 391.6,2.9 L391.6,3.6 C391.6,4 391.3,4.4 390.8,4.4 C390.4,4.4 390,4 390,3.6 L390,2.9 Z M390,7.9 C390,7.5 390.3,7.1 390.8,7.1 C391.2,7.1 391.6,7.4 391.6,7.9 L391.6,21.9 C391.6,22.3 391.3,22.7 390.8,22.7 C390.4,22.7 390,22.4 390,21.9 L390,7.9 Z" id="Shape" fill-rule="nonzero"></path>
                <path d="M416.3,13.5 C416.3,10.9 414.2,8.7 411.5,8.7 C408.9,8.7 406.7,10.9 406.7,13.5 L406.7,21.9 L406.7,22 C406.7,22.1 406.6,22.3 406.5,22.3 C406.4,22.5 406.2,22.6 405.9,22.6 L405.7,22.6 C405.5,22.5 405.3,22.4 405.2,22.2 C405.2,22.2 405.2,22.1 405.2,22.1 C405.2,22.1 405.2,22 405.2,22 L405.2,13.6 L405.2,13.3 L405.2,8 C405.2,7.6 405.5,7.2 406,7.2 C406.4,7.2 406.7,7.5 406.7,8 L406.7,9.5 C407.8,8.1 409.6,7.2 411.5,7.2 C415,7.2 417.8,10.1 417.8,13.5 L417.8,21.9 C417.8,22.3 417.5,22.7 417,22.7 C416.6,22.7 416.2,22.4 416.2,21.9 L416.2,13.5 L416.3,13.5 Z" id="Path"></path>
                <path d="M444.6,21.5 C444.6,25.5 441.3,28.8 437.3,28.8 C436.2,28.8 435.1,28.5 434.1,28.1 C433.8,27.9 433.6,27.4 433.8,27.1 C434,26.7 434.4,26.5 434.8,26.8 C435.6,27.2 436.4,27.4 437.3,27.4 C440.5,27.4 443.1,24.8 443.1,21.6 L443.1,19.7 C441.8,21.6 439.7,22.7 437.3,22.7 C433.2,22.7 430,19.2 430,15 C430,10.8 433.2,7.3 437.3,7.3 C439.7,7.3 441.8,8.5 443.1,10.3 L443.1,8 C443.1,7.6 443.4,7.2 443.9,7.2 C444.3,7.2 444.6,7.5 444.6,8 L444.6,21.5 Z M443.1,14.9 C443.1,11.4 440.5,8.7 437.3,8.7 C434.1,8.7 431.5,11.4 431.5,14.9 C431.5,18.4 434.1,21.2 437.3,21.2 C440.5,21.1 443.1,18.4 443.1,14.9 Z" id="Shape" fill-rule="nonzero"></path>
            </g>
        </g>
    </g>
</svg>